<svg width="80" height="19" viewBox="0 0 80 19" fill="none" xmlns="http://www.w3.org/2000/svg">
<path d="M9.86871 0V12.2382C9.86871 13.7527 9.40459 14.9496 8.47634 15.829C7.56438 16.7084 6.35929 18.8092 4.86107 18.8092C3.36286 18.8092 2.14962 16.7084 1.22138 15.829C0.309421 14.9496 0 12.3848 0 10.8703L2.44275 9.45344C2.45903 10.2025 2.86616 13.5817 3.22443 14.0214C3.59899 14.4611 4.14454 14.6809 4.86107 14.6809C5.57761 14.6809 6.12316 14.4611 6.49772 14.0214C6.87227 13.5654 7.05955 12.971 7.05955 12.2382V1.70995L9.86871 0Z" fill="#3F3BFF"/>
<path d="M13.4706 10.1863C13.4706 8.83461 13.7475 7.63766 14.3012 6.59542C14.8711 5.55318 15.6365 4.74707 16.5973 4.1771C17.5744 3.59084 18.6492 3.29771 19.8218 3.29771C20.8803 3.29771 21.8004 3.50942 22.5821 3.93282C23.38 4.33995 24.0151 4.85293 24.4874 5.47176V3.51756H27.2966V18.8092L24.4874 16.9771V14.974C24.0151 15.6092 23.3719 16.1384 22.5576 16.5618C21.7434 16.9852 20.8151 17.1969 19.7729 17.1969C18.6167 17.1969 17.5581 16.9038 16.5973 16.3176C15.6365 15.715 14.8711 14.8845 14.3012 13.826C13.7475 12.7511 13.4706 11.5379 13.4706 10.1863ZM24.4874 10.2351C24.4874 9.30687 24.292 8.50076 23.9011 7.81679C23.5266 7.13283 23.0299 6.61171 22.4111 6.25344C21.7922 5.89517 21.1246 5.71603 20.408 5.71603C19.6915 5.71603 19.0238 5.89517 18.405 6.25344C17.7861 6.59542 17.2813 7.1084 16.8905 7.79237C16.5159 8.46005 16.3286 9.25802 16.3286 10.1863C16.3286 11.1145 16.5159 11.9288 16.8905 12.629C17.2813 13.3293 17.7861 13.8667 18.405 14.2412C19.0401 14.5995 19.7078 14.7786 20.408 14.7786C21.1246 14.7786 21.7922 14.5995 22.4111 14.2412C23.0299 13.883 23.5266 13.3618 23.9011 12.6779C24.292 11.9776 24.4874 11.1634 24.4874 10.2351Z" fill="#3F3BFF"/>
<path d="M47.2473 3.29771C48.3059 3.29771 49.2504 3.51756 50.0809 3.95725C50.9277 4.39695 51.5873 5.04835 52.0596 5.91145C52.5481 6.77456 52.7924 7.8168 52.7924 9.03817V16.9771L50.0321 17.1969V9.45344C50.0321 8.24835 49.7308 7.32825 49.1283 6.69313C48.5257 6.04173 47.7033 5.71603 46.6611 5.71603C45.6188 5.71603 44.7883 6.04173 44.1695 6.69313C43.5669 7.32825 43.2657 8.24835 43.2657 9.45344V16.9771H40.5053V9.45344C40.5053 8.24835 40.2041 7.32825 39.6015 6.69313C38.999 6.04173 38.1766 5.71603 37.1344 5.71603C36.0921 5.71603 35.2616 6.04173 34.6428 6.69313C34.0402 7.32825 33.7389 8.24835 33.7389 9.45344V17.1969L30.9542 16.9771V3.76183H33.7389V5.05649C34.1949 4.5028 34.773 4.07125 35.4733 3.76183C36.1735 3.45242 36.9227 3.29771 37.7206 3.29771C38.7954 3.29771 39.7562 3.5257 40.6031 3.98168C41.4499 4.43766 42.1013 5.0972 42.5573 5.96031C42.9644 5.14606 43.5995 4.5028 44.4626 4.03053C45.3257 3.54199 46.2539 3.29771 47.2473 3.29771Z" fill="#3F3BFF"/>
<path d="M62.1741 17.1969C60.9038 17.1969 59.7557 16.912 58.7298 16.342C57.7038 15.7557 56.8977 14.9415 56.3115 13.8992C55.7252 12.8407 55.4321 11.6193 55.4321 10.2351C55.4321 8.86718 55.7333 7.65394 56.3359 6.59542C56.9384 5.5369 57.7608 4.72265 58.8031 4.15267C59.8453 3.5827 61.0097 3.29771 62.2962 3.29771C63.5827 3.29771 64.7471 3.5827 65.7893 4.15267C66.8316 4.72265 67.6539 5.5369 68.2565 6.59542C68.859 7.65394 69.1603 8.86718 69.1603 10.2351C69.1603 11.6031 68.8509 12.8163 68.2321 13.8748C67.6132 14.9333 66.7664 15.7557 65.6916 16.342C64.6331 16.912 63.4606 17.1969 62.1741 17.1969ZM62.1741 14.7786C62.8906 14.7786 63.5583 14.6076 64.1771 14.2656C64.8122 13.9237 65.3252 13.4107 65.716 12.7267C66.1069 12.0427 66.3023 11.2122 66.3023 10.2351C66.3023 9.25802 66.115 8.43562 65.7405 7.76794C65.3659 7.08397 64.8692 6.57099 64.2504 6.22901C63.6316 5.88702 62.9639 5.71603 62.2473 5.71603C61.5308 5.71603 60.8631 5.88702 60.2443 6.22901C59.6417 6.57099 59.1613 7.08397 58.8031 7.76794C58.4448 8.43562 58.2657 9.25802 58.2657 10.2351C58.2657 11.6845 58.6321 12.8081 59.3649 13.6061C60.114 14.3878 61.0504 14.7786 62.1741 14.7786Z" fill="#3F3BFF"/>
<path d="M74.6979 5.47176C75.105 4.78779 75.6424 4.25853 76.3101 3.88397C76.9941 3.49313 79.0718 3.51756 80 3.51756L78.7284 6.18015H78.02C76.9289 6.18015 76.0984 6.457 75.5284 7.01069C74.9748 7.56438 74.6979 8.52519 74.6979 9.89313V16.9771L71.9132 14.974V5.47176L74.6979 3.51756V5.47176Z" fill="#3F3BFF"/>
</svg>
